<svg xmlns="http://www.w3.org/2000/svg" xmlns:xlink="http://www.w3.org/1999/xlink" width="2700" zoomAndPan="magnify" viewBox="0 0 2025 292.499991" height="390" preserveAspectRatio="xMidYMid meet" version="1.0"><defs><clipPath id="ac1acd62fe"><path d="M 33 8 L 733 8 L 733 286.074219 L 33 286.074219 Z M 33 8 " clip-rule="nonzero"/></clipPath><clipPath id="81ae80a170"><path d="M 1043 2 L 1727 2 L 1727 287.367188 L 1043 287.367188 Z M 1043 2 " clip-rule="nonzero"/></clipPath></defs><g clip-path="url(#ac1acd62fe)"><path fill="#000a36" d="M 161.425781 286.082031 C 166.671875 286.082031 170.242188 282.511719 170.242188 277.261719 L 170.242188 70.617188 L 229.59375 70.617188 C 234.835938 70.617188 238.414062 67.042969 238.414062 61.800781 L 238.414062 17.460938 C 238.414062 12.214844 234.835938 8.640625 229.59375 8.640625 L 42.253906 8.640625 C 37.007812 8.640625 33.433594 12.214844 33.433594 17.460938 L 33.433594 61.796875 C 33.433594 67.039062 37.007812 70.613281 42.253906 70.613281 L 101.601562 70.613281 L 101.601562 277.261719 C 101.128906 282.507812 104.703125 286.082031 109.945312 286.082031 L 161.429688 286.082031 Z M 313.972656 286.082031 L 480.339844 286.082031 C 485.582031 286.082031 489.160156 282.511719 489.160156 277.261719 L 489.160156 235.550781 C 489.160156 230.308594 485.582031 226.734375 480.339844 226.734375 L 371.410156 226.734375 L 371.410156 175.25 L 459.355469 175.25 C 464.597656 175.25 468.175781 171.671875 468.175781 166.433594 L 468.175781 124.722656 C 468.175781 119.476562 464.601562 115.898438 459.355469 115.898438 L 371.414062 115.898438 L 371.414062 67.992188 L 478.667969 67.992188 C 483.910156 67.992188 487.488281 64.417969 487.488281 59.175781 L 487.488281 17.460938 C 487.488281 12.214844 483.910156 8.640625 478.667969 8.640625 L 313.972656 8.640625 C 308.730469 8.640625 305.152344 12.214844 305.152344 17.460938 L 305.152344 277.261719 C 305.152344 282.507812 308.726562 286.082031 313.972656 286.082031 M 569.953125 286.082031 L 724.167969 286.082031 C 729.410156 286.082031 732.988281 282.511719 732.988281 277.261719 L 732.988281 231.976562 C 732.988281 226.730469 729.414062 223.160156 724.167969 223.160156 L 630.023438 223.160156 L 630.023438 17.460938 C 630.023438 12.214844 626.445312 8.640625 621.203125 8.640625 L 569.953125 8.640625 C 564.710938 8.640625 561.136719 12.214844 561.136719 17.460938 L 561.136719 277.261719 C 561.378906 282.507812 564.953125 286.082031 569.953125 286.082031 " fill-opacity="1" fill-rule="evenodd"/></g><path fill="#000a36" d="M 803.394531 284.738281 L 969.050781 284.738281 C 974.289062 284.738281 977.859375 281.167969 977.859375 275.917969 L 977.859375 234.207031 C 977.859375 228.964844 974.289062 225.394531 969.050781 225.394531 L 861.070312 225.394531 L 861.070312 173.90625 L 948.308594 173.90625 C 953.554688 173.90625 957.128906 170.332031 957.128906 165.089844 L 957.128906 123.378906 C 957.128906 118.136719 953.554688 114.554688 948.308594 114.554688 L 861.070312 114.554688 L 861.070312 66.648438 L 967.375 66.648438 C 972.621094 66.648438 976.195312 63.078125 976.195312 57.832031 L 976.195312 16.117188 C 976.195312 10.875 972.617188 7.296875 967.378906 7.296875 L 803.632812 7.296875 C 798.386719 7.296875 794.8125 10.875 794.8125 16.117188 L 794.8125 275.917969 C 794.570312 281.164062 798.148438 284.738281 803.394531 284.738281 " fill-opacity="1" fill-rule="evenodd"/><path fill="#e82835" d="M 1806.480469 283.753906 L 1972.132812 283.753906 C 1977.375 283.753906 1980.957031 280.179688 1980.957031 274.933594 L 1980.957031 233.222656 C 1980.957031 227.980469 1977.378906 224.40625 1972.132812 224.40625 L 1864.164062 224.40625 L 1864.164062 172.921875 L 1951.402344 172.921875 C 1956.648438 172.921875 1960.222656 169.34375 1960.222656 164.101562 L 1960.222656 122.390625 C 1960.222656 117.144531 1956.644531 113.570312 1951.402344 113.570312 L 1864.160156 113.570312 L 1864.160156 65.664062 L 1970.464844 65.664062 C 1975.710938 65.664062 1979.285156 62.085938 1979.285156 56.847656 L 1979.285156 15.132812 C 1979.285156 9.886719 1975.710938 6.3125 1970.464844 6.3125 L 1806.71875 6.3125 C 1801.476562 6.3125 1797.898438 9.886719 1797.898438 15.132812 L 1797.898438 274.933594 C 1797.660156 280.414062 1801.238281 283.753906 1806.476562 283.753906 " fill-opacity="1" fill-rule="evenodd"/><g clip-path="url(#81ae80a170)"><path fill="#e82835" d="M 1539.765625 283.753906 C 1545.011719 283.753906 1548.589844 280.183594 1548.589844 274.933594 L 1548.589844 136.453125 L 1694.21875 278.507812 C 1698.507812 282.800781 1702.085938 283.753906 1707.332031 283.753906 L 1717.8125 283.753906 C 1723.058594 283.753906 1726.636719 280.183594 1726.636719 274.933594 L 1726.636719 15.132812 C 1726.636719 9.886719 1723.0625 6.3125 1717.8125 6.3125 L 1669.675781 6.3125 C 1664.429688 6.3125 1660.851562 9.886719 1660.851562 15.132812 L 1660.851562 154.808594 L 1518.796875 11.792969 C 1514.503906 7.507812 1510.929688 6.550781 1505.6875 6.550781 L 1491.625 6.550781 C 1486.382812 6.550781 1482.804688 10.128906 1482.804688 15.375 L 1482.804688 275.171875 C 1483.042969 281.136719 1486.617188 283.753906 1491.863281 283.753906 Z M 1350.757812 283.753906 L 1402.246094 283.753906 C 1407.488281 283.753906 1411.058594 280.183594 1411.058594 274.933594 L 1411.058594 15.132812 C 1411.058594 9.886719 1407.484375 6.3125 1402.246094 6.3125 L 1350.757812 6.3125 C 1345.515625 6.3125 1341.941406 9.886719 1341.941406 15.132812 L 1341.941406 274.933594 C 1341.941406 280.414062 1345.515625 283.753906 1350.757812 283.753906 M 1184.148438 288.039062 C 1224.199219 288.039062 1260.902344 268.976562 1284.253906 246.335938 C 1288.546875 242.046875 1290.453125 237.515625 1284.253906 232.507812 L 1255.421875 202.953125 C 1251.839844 199.378906 1247.554688 199.378906 1243.265625 203.902344 C 1224.90625 218.679688 1207.511719 225.597656 1186.535156 225.597656 C 1143.875 225.597656 1111.695312 194.128906 1111.695312 144.558594 C 1111.695312 94.027344 1144.824219 65.1875 1186.535156 65.1875 C 1205.605469 65.1875 1221.332031 70.429688 1239.6875 85.207031 C 1243.976562 88.785156 1247.554688 88.785156 1251.839844 84.25 L 1279.730469 55.414062 C 1284.019531 51.125 1284.976562 46.597656 1279.730469 41.585938 C 1256.132812 18.945312 1222.292969 2.261719 1185.585938 2.261719 C 1108.117188 2.261719 1043.527344 63.28125 1043.527344 145.269531 C 1044.003906 229.644531 1102.402344 288.039062 1184.148438 288.039062 " fill-opacity="1" fill-rule="evenodd"/></g></svg>