<svg xmlns="http://www.w3.org/2000/svg" xmlns:xlink="http://www.w3.org/1999/xlink" width="220" zoomAndPan="magnify" viewBox="0 0 165 37.5" height="50" preserveAspectRatio="xMidYMid meet" version="1.0"><path fill="#f31d1d" d="M 148.808594 35.035156 C 151.691406 35.035156 153.976562 32.714844 155.734375 28.324219 L 162.761719 10.855469 C 162.867188 10.574219 162.902344 10.398438 162.902344 10.152344 C 162.902344 9.554688 162.445312 9.203125 161.636719 9.203125 L 158.929688 9.203125 C 158.121094 9.203125 157.59375 9.554688 157.3125 10.363281 L 153.550781 21.539062 L 149.160156 10.363281 C 148.84375 9.554688 148.316406 9.203125 147.507812 9.203125 L 144.765625 9.203125 C 143.605469 9.203125 143.289062 10.011719 143.675781 10.890625 L 151.058594 27.164062 L 150.53125 28.324219 C 149.792969 29.90625 149.089844 30.574219 148.246094 30.574219 C 147.613281 30.574219 147.121094 30.257812 146.734375 30.011719 C 145.996094 29.519531 145.328125 29.730469 144.871094 30.328125 L 144.027344 31.417969 C 143.429688 32.15625 143.5 32.753906 144.273438 33.453125 C 145.398438 34.472656 146.488281 35.035156 148.808594 35.035156 M 134.644531 8.78125 C 131.726562 8.78125 129.476562 9.238281 127.265625 10.820312 C 126.386719 11.453125 126.558594 12.050781 127.050781 12.789062 L 127.71875 13.773438 C 128.210938 14.511719 128.914062 14.441406 129.722656 14.019531 C 131.164062 13.246094 132.5 13 133.941406 13 C 136.472656 13 138.089844 14.300781 138.089844 17.113281 L 138.089844 17.359375 C 136.613281 16.796875 134.925781 16.550781 133.0625 16.550781 C 127.789062 16.550781 125.613281 19.398438 125.613281 22.277344 C 125.613281 25.125 127.511719 27.867188 132.253906 27.867188 C 135.277344 27.867188 137.316406 26.566406 138.546875 24.878906 C 138.617188 25.40625 138.6875 25.898438 138.792969 26.425781 C 138.933594 27.164062 139.496094 27.445312 140.304688 27.445312 L 141.605469 27.445312 C 142.484375 27.445312 143.011719 26.917969 143.011719 26.039062 L 143.011719 17.394531 C 143.011719 11.417969 139.320312 8.78125 134.644531 8.78125 M 133.132812 24.035156 C 131.585938 24.035156 130.496094 23.402344 130.496094 22.03125 C 130.496094 20.59375 131.515625 19.851562 133.941406 19.851562 C 135.417969 19.851562 136.648438 20.0625 137.878906 20.34375 C 137.523438 22.734375 135.875 24.035156 133.132812 24.035156 M 119.765625 27.738281 L 122.144531 26.816406 C 123.039062 26.472656 123.46875 25.855469 123.46875 24.867188 L 123.46875 4.578125 C 123.46875 3.585938 123.035156 2.96875 122.144531 2.628906 L 119.765625 1.703125 C 118.804688 1.328125 118.179688 1.808594 118.179688 2.867188 L 118.179688 26.574219 C 118.179688 27.636719 118.804688 28.113281 119.765625 27.738281 M 107.792969 8.78125 C 105.261719 8.78125 103.082031 9.90625 101.570312 11.699219 C 101.535156 11.242188 101.464844 10.75 101.324219 10.296875 C 101.113281 9.554688 100.621094 9.203125 99.8125 9.203125 L 98.054688 9.203125 C 97.179688 9.203125 96.652344 9.695312 96.652344 10.644531 L 96.652344 33.492188 C 96.652344 34.40625 97.175781 34.894531 98.054688 34.894531 L 100.515625 34.894531 C 101.394531 34.894531 101.921875 34.40625 101.921875 33.492188 L 101.921875 25.441406 C 103.328125 26.953125 105.226562 27.867188 107.648438 27.867188 C 112.78125 27.867188 116.15625 23.933594 116.15625 18.34375 C 116.15625 12.824219 112.992188 8.78125 107.792969 8.78125 M 106.5625 23.367188 C 104.101562 23.367188 101.921875 21.890625 101.921875 18.550781 L 101.921875 17.886719 C 101.921875 14.96875 103.960938 13.28125 106.632812 13.28125 C 108.953125 13.28125 110.882812 14.792969 110.882812 18.414062 C 110.886719 22.03125 108.8125 23.367188 106.5625 23.367188 M 84.980469 8.78125 C 79.078125 8.78125 75.210938 13.210938 75.210938 18.308594 C 75.210938 23.648438 78.902344 27.867188 84.980469 27.867188 C 90.851562 27.867188 94.648438 23.367188 94.648438 18.308594 C 94.648438 13.035156 90.957031 8.78125 84.980469 8.78125 M 84.949219 23.367188 C 81.890625 23.367188 80.484375 20.941406 80.484375 18.308594 C 80.484375 15.742188 81.890625 13.28125 84.984375 13.28125 C 88.007812 13.28125 89.375 15.671875 89.375 18.308594 C 89.375 20.941406 88.003906 23.367188 84.949219 23.367188 M 65.230469 8.78125 C 62.875 8.78125 60.800781 9.730469 59.324219 11.347656 L 59.324219 3.019531 C 59.324219 2.105469 58.796875 1.613281 57.882812 1.613281 L 55.457031 1.613281 C 54.617188 1.613281 54.054688 2.105469 54.054688 3.019531 L 54.054688 26.039062 C 54.054688 26.917969 54.617188 27.445312 55.457031 27.445312 L 57.074219 27.445312 C 57.917969 27.445312 58.480469 27.128906 58.691406 26.25 C 58.796875 25.828125 58.832031 25.441406 58.902344 25.019531 C 60.308594 26.777344 62.382812 27.867188 65.019531 27.867188 C 70.1875 27.867188 73.523438 23.929688 73.523438 18.378906 C 73.523438 12.859375 70.363281 8.78125 65.230469 8.78125 M 63.929688 23.367188 C 61.46875 23.367188 59.324219 21.925781 59.324219 18.550781 L 59.324219 17.886719 C 59.324219 14.96875 61.328125 13.28125 64.035156 13.28125 C 66.320312 13.28125 68.253906 14.828125 68.253906 18.414062 C 68.253906 22.066406 66.214844 23.367188 63.929688 23.367188 M 42.351562 8.78125 C 36.445312 8.78125 32.578125 13.210938 32.578125 18.308594 C 32.578125 23.648438 36.269531 27.867188 42.351562 27.867188 C 48.21875 27.867188 52.015625 23.367188 52.015625 18.308594 C 52.015625 13.035156 48.359375 8.78125 42.351562 8.78125 M 42.3125 23.367188 C 39.257812 23.367188 37.851562 20.941406 37.851562 18.308594 C 37.851562 15.742188 39.257812 13.28125 42.347656 13.28125 C 45.371094 13.28125 46.742188 15.671875 46.742188 18.308594 C 46.742188 20.941406 45.375 23.367188 42.3125 23.367188 M 26.710938 27.445312 L 29.136719 27.445312 C 30.050781 27.445312 30.542969 26.917969 30.542969 26.039062 L 30.542969 3.019531 C 30.542969 2.105469 30.050781 1.613281 29.136719 1.613281 L 26.710938 1.613281 C 25.796875 1.613281 25.269531 2.105469 25.269531 3.019531 L 25.269531 26.039062 C 25.269531 26.917969 25.796875 27.445312 26.710938 27.445312 M 21.015625 9.203125 L 19.398438 9.203125 C 18.558594 9.203125 17.960938 9.554688 17.785156 10.328125 C 17.679688 10.785156 17.679688 11.101562 17.644531 11.453125 C 16.203125 9.835938 14.234375 8.785156 11.632812 8.785156 C 6.851562 8.785156 3.09375 12.402344 3.09375 17.957031 C 3.09375 23.402344 6.570312 26.882812 11.421875 26.882812 C 13.917969 26.882812 15.882812 25.96875 17.253906 24.421875 L 17.253906 25.757812 C 17.253906 28.992188 15.324219 30.644531 11.667969 30.644531 C 9.523438 30.644531 8.011719 29.976562 6.464844 29.097656 C 6.148438 28.921875 5.832031 28.78125 5.550781 28.78125 C 5.128906 28.78125 4.777344 28.992188 4.496094 29.449219 L 3.652344 30.75 C 3.441406 31.066406 3.335938 31.347656 3.335938 31.664062 C 3.335938 32.015625 3.546875 32.367188 3.96875 32.683594 C 6.359375 34.476562 9.101562 35.175781 12.40625 35.175781 C 18.554688 35.175781 22.421875 30.960938 22.421875 25.585938 L 22.421875 10.609375 C 22.421875 9.695312 21.929688 9.203125 21.015625 9.203125 M 17.253906 18.167969 C 17.253906 21.046875 15.214844 22.664062 12.511719 22.664062 C 10.226562 22.664062 8.363281 21.117188 8.363281 17.886719 C 8.363281 14.511719 10.4375 13.210938 12.652344 13.210938 C 15.078125 13.210938 17.253906 14.582031 17.253906 17.886719 Z M 17.253906 18.167969 " fill-opacity="1" fill-rule="nonzero"/></svg>