<?xml version="1.0" encoding="UTF-8"?>
<svg version="1.1" viewBox="0 0 2048 416" width="512" height="104" xmlns="http://www.w3.org/2000/svg">
<path transform="translate(161,14)" d="m0 0h17l16 3 13 5 12 7 14 12 37 37 8 7 23 23 8 11 8 16 4 16 1 7v14l-3 15-5 14-8 14-11 12-9 10-38 38-7 8-11 11-14 10-12 6-13 4-17 2-18-1-12-3-14-6-14-10-9-9-8-7-41-41-8-7-7-7-11-14-7-14-4-13-2-16 1-15 4-17 8-16 9-12 11-11 7-8 36-36 7-8 8-8 13-10 16-8 14-4z" fill="#FEAF0D"/>
<path transform="translate(666,27)" d="m0 0h15l8 4 7 8 4 10 1 13-2 12-8 16-10 16-16 23-10 14-22 28-10 13-9 12-13 18-14 21-15 25-12 22-8 11-10 10-10 5-7 2h-12l-18-4-8-4-5-4-10-14-13-21-16-21-10-11-7-8-39-39-8-7-10-11-7-10-4-9-1-10 4-10 6-8 8-7 5-2h6l6 4 8 9 13 19 10 14 12 14 9 10 12 12 6 5 7 8 14 11 14 7 8 2h13l13-5 10-6 12-11 9-10 10-14 14-22 12-23 16-36 22-44 10-14 7-7 10-5z" fill="#FEFDFD"/>
<path transform="translate(1831,150)" d="m0 0h20l16 4 14 7 11 9 8 10 8 15 5 17 2 13v18l-2 4-2 1-100 1 1 6 7 8 9 5 10 2h13l9-3 6-4 5 1 13 7 12 8 4 4-1 5-10 9-12 7-17 5-6 1h-23l-16-4-16-8-12-11-6-7-8-14-5-16-2-10v-19l4-19 7-16 7-10 8-9 10-7 12-6zm6 39-12 3-9 6-6 8-1 5 10 2h46l5-1-1-6-3-6-4-5-8-4-9-2z" fill="#FEFDFD"/>
<path transform="translate(1429,154)" d="m0 0h40l4 4 11 27 22 55 2 2 4-8 10-30 15-43 3-6 2-1h38l3 1-1 9-11 31-13 34-26 69-16 42-7 13-9 10-10 7-12 4-7 1h-12l-12-2-4-3v-8l9-27 3-4h14l7-3 5-5 4-11v-8l-15-37-18-44-16-39-9-23v-6z" fill="#FEFDFD"/>
<path transform="translate(706,150)" d="m0 0h21l16 4 15 8 12 11 8 11 7 15 4 16 1 6v23l-4 4-99 1-1 3 6 9 9 6 12 3h13l8-2 8-5 9 3 19 12 5 4 1 3-3 5-13 10-13 6-17 4h-25l-17-5-12-6-13-11-8-10-8-16-4-14-1-6v-23l4-18 7-16 8-11 10-10 14-8 15-5zm6 39-12 3-8 6-6 7-1 6 1 1 8 1h46l6-2-3-9-7-8-9-4-6-1z" fill="#FEFDFD"/>
<path transform="translate(962,150)" d="m0 0h21l16 4 12 5 13 9 9 8 10 14 7 16 3 17v15l-3 16-5 13-9 14-13 13-14 8-13 5-13 3h-23l-16-4-16-8-10-8-9-9-9-14-6-16-3-14v-15l3-15 7-16 8-11 9-10 14-10 16-7zm7 39-10 2-10 6-7 7-6 12-1 4v19l3 10 6 10 8 7 9 4 6 1h10l13-4 8-6 7-8 4-11 1-5v-15l-4-12-6-9-7-6-8-4-10-2z" fill="#FEFDFD"/>
<path transform="translate(1676,150)" d="m0 0h17l12 3 11 6 9 8 8 13 4 12 2 16v93l-2 4-2 1h-36l-2-1-1-3-1-88-2-11-3-6-6-5h-14l-8 3-7 7-4 9-2 9-1 16-1 68-3 2h-37l-3-5v-142l2-4 2-1h37l4 6 7-3 12-5z" fill="#FEFDFD"/>
<path transform="translate(1363,91)" d="m0 0h6l1 3v59l34 1 2 3v36l-2 2-5 1h-29l1 57 3 9 3 3 2 1h8l11-4 4 2 5 12 6 18-1 7-10 5-15 4h-19l-12-3-11-6-9-10-6-13-3-14-1-16-1-51-11-2-3-3v-35l1-2 10-2h4v-41l2-5 8-5 23-10z" fill="#FEFDFD"/>
<path transform="translate(1983,91)" d="m0 0h6l1 2 1 60 32 1 4 4v33l-2 4-7 1h-27v47l1 13 4 8 3 2h8l11-4 4 2 5 10 6 19v7l-8 5-13 4-4 1h-20l-11-3-10-5-9-9-6-11-4-14-1-8-1-63-12-2-3-4v-31l2-5 10-2h4v-44l4-4 12-6z" fill="#FEFDFD"/>
<path transform="translate(1145,150)" d="m0 0h23l16 4 16 8 8 6-1 9-10 20-4 5-5-1-14-8-12-3h-10l-12 3-11 8-6 10-4 13v13l4 13 6 9 7 6 10 4 13 1 11-2 14-7 9-6 4 1 3 4 9 25-1 7-10 7-15 7-16 4h-23l-16-4-12-5-13-9-10-10-7-10-7-15-4-17v-18l3-15 5-13 9-14 11-12 14-9 11-5z" fill="#FEFDFD"/>
<path transform="translate(259,101)" d="m0 0 8 1 5 3 4 7 1 4v14l-5 12-14 21-14 19-11 14-16 21-10 15-10 16-12 21-9 10-6 4-7 2h-8l-13-4-7-5-18-27-9-11-9-10-8-9-8-7-19-19-7-11-1-2v-9l6-10 8-5h5l8 8 13 18 11 14 6 6v2l4 2 15 15 10 6 9 3h7l10-3 9-6 10-10 9-13 9-15 8-16 13-28 11-21 7-9 6-5z" fill="#FEFDFD"/>
<path transform="translate(821,88)" d="m0 0h37l4 2v213l-3 3h-38l-3-4v-211z" fill="#FEFDFD"/>
<path transform="translate(1241,154)" d="m0 0h36l3 3 1 21v50l-1 76-4 2h-36l-2-2-1-4v-141l2-4z" fill="#FEFDFD"/>
<path transform="translate(1985,344)" d="m0 0h8l6 4 3 1 10-5h9l6 3 5 6 2 5v37l-1 1h-13l-1-2-1-36-11 1-1 37h-14l-1-3-1-35h-6l-4 2-2 8-1 28h-14v-50l1-1h11l5 1z" fill="#FEAF0D"/>
<path transform="translate(1253,81)" d="m0 0h12l9 4 8 7 4 8 1 4v10l-4 9-6 7-10 5-5 1h-7l-11-4-8-7-5-10-1-7 4-13 8-9 8-4z" fill="#FEFDFD"/>
<path transform="translate(1786,344)" d="m0 0h11l8 3 5 5 5 8 2 8v8h-36l4 6 2 1h10l6-1 8 6-1 4-6 4-6 2h-12l-7-3-5-4-6-10-2-11 3-12 4-6 6-5zm2 13-6 3-1 4 1 1h19l1-2-4-5-3-1z" fill="#FEAF0D"/>
<path transform="translate(1913,344)" d="m0 0h10l9 3 6 4 6 9 2 7v8l-3 8-4 6-7 6-8 3h-11l-10-4-7-7-4-8-1-4v-8l4-11 4-5 8-5zm3 13-7 3-3 6v10l4 6 4 2h10l5-4 2-4v-10l-3-6-6-3z" fill="#FEAF0D"/>
<path transform="translate(1686,344)" d="m0 0h11l8 3 5 5 5 8 2 8v8l-10 1-26-1 4 6 2 1h10l6-1 8 5-1 5-6 4-7 2h-10l-8-3-7-7-4-7-1-4v-13l4-9 6-7zm3 13-7 3-1 5h20l1-2-2-4-4-2z" fill="#FEAF0D"/>
<path transform="translate(1605,323)" d="m0 0h56v14h-20v59h-15l-1-1-1-57-19-1-1-1v-12z" fill="#FEAF0D"/>
<path transform="translate(152,156)" d="m0 0 11 2 5 3 5 8 1 3v10l-6 10-8 5h-12l-7-3-5-4-4-9v-7l4-10 6-5 4-2z" fill="#FEFDFD"/>
<path transform="translate(1853,344)" d="m0 0h12l10 4 1 5-3 6-3 2-7-3h-7l-6 3-3 6v9l4 6 2 1h11l8-4 3 4 2 5-1 4-12 6h-11l-8-3-8-7-5-10v-14l6-12 9-6z" fill="#FEAF0D"/>
<path transform="translate(1215,335)" d="m0 0h7l5 4 6-4h8l6 3 2 4 1 6v24h-10l-1-27-7 1-1 1-1 24-6 2-4-1-1-2-1-24h-8l-1 26-7 1-3-2v-35h13z" fill="#FEFDFD"/>
<path transform="translate(1363,320)" d="m0 0h10l1 1v49l-2 3h-24l-6-4-4-5-2-4v-12l5-8 5-4 2-1h10l5 1zm-10 24-5 3-2 2v9l2 4 3 2h7l5-5v-10l-4-4z" fill="#FEFDFD"/>
<path transform="translate(842,320)" d="m0 0h10l1 31v19l-2 3h-24l-6-4-5-6-1-3v-12l4-8 8-5h12l3 1zm-10 24-5 3-2 2v9l4 5 2 1h6l4-4 1-2v-9l-4-4z" fill="#FEFDFD"/>
<path transform="translate(1734,323)" d="m0 0h15v73h-15z" fill="#FEAF0D"/>
<path transform="translate(517,319)" d="m0 0h12l7 3 1 5-2 5-7-1h-10l-6 3-3 4-1 3v11l3 5 5 4 3 1h7l6-3h4l1 2v7l-2 3-9 3h-7l-9-3-8-6-6-10-1-4v-8l3-10 9-10z" fill="#FEFDFD"/>
<path transform="translate(1053,335)" d="m0 0h10l7 4 5 8 1 3v8l-1 1h-24l1 4h17l2 1-1 6-8 4h-8l-6-3-6-7-2-5v-9l4-9 6-5zm0 10-2 2v3l4 1 9-1 1-2-2-3z" fill="#FEFDFD"/>
<path transform="translate(1108,335)" d="m0 0h11l8 4 3 6v26l-1 2h-13l-7 1-7-2-5-6-1-6 3-6 5-3 13-2 2-1-1-3h-8l-8 1-2-2 1-5 4-3zm6 23-8 2v3l2 1h7l4-2 1-4z" fill="#FEFDFD"/>
<path transform="translate(639,335)" d="m0 0h11l6 4 5 6 1 3v10l-1 1h-23l1 3 2 1h15l2 1-1 5-5 4-3 1h-8l-7-3-6-8-2-6 1-9 4-8zm2 9-4 4v2h14v-3l-5-3z" fill="#FEFDFD"/>
<path transform="translate(745,335)" d="m0 0h11l8 4 3 5v28l-1 1h-25l-5-4-2-5v-6l3-5 8-3 11-1v-5l-13 2h-5v-7l4-3zm5 23-6 2-1 3 1 1h9l3-1v-5z" fill="#FEFDFD"/>
<path transform="translate(1395,335)" d="m0 0h10l8 4 4 5 3 8-1 9-4 6-4 4-10 3-8-1-6-4-5-6-2-6 1-9 5-8 6-4zm4 9-6 3-3 5 2 9 5 3 8-1 4-5v-7l-3-5z" fill="#FEFDFD"/>
<path transform="translate(972,335)" d="m0 0h11l8 4 5 7 1 4v9l-3 6-5 5-8 4-10-1-6-4-5-6-2-5v-7l5-10 6-5zm4 9-5 3-3 4 1 8 5 5h7l5-4 1-2v-7l-5-6z" fill="#FEFDFD"/>
<path transform="translate(874,335)" d="m0 0h9l7 3 5 5 4 8-1 9-5 8-8 5-8 1-9-3-7-8-2-6 1-9 5-8 6-4zm3 9-5 3-2 2-1 6 3 7 3 2h7l5-4 1-2v-7l-5-6z" fill="#FEFDFD"/>
<path transform="translate(556,335)" d="m0 0h10l8 4 4 5 2 4v13l-6 8-7 4h-13l-6-4-4-5-3-9 1-7 6-9zm3 9-6 4-1 1v10l6 5h6l5-4 1-2v-8l-4-5z" fill="#FEFDFD"/>
<path transform="translate(1151,335)" d="m0 0h11l6 3 6 7 2 4v10l-3 6-5 5-5 3h-13l-7-4-5-8-1-3v-9l5-8 6-5zm3 9-5 3-2 4 1 8 5 5h7l5-4 1-8-3-6-5-2z" fill="#FEFDFD"/>
<path transform="translate(602,335)" d="m0 0h10l5 4 3 8v24l-1 1h-9l-1-2-1-23-2-2-5 1-2 5-1 20-1 1h-9l-1-4 1-32h11z" fill="#FEFDFD"/>
<path transform="translate(1312,335)" d="m0 0h9l6 5 2 5v27h-9l-1-1-1-24-1-1h-6l-3 7-1 19h-10l-1-4 1-32h11z" fill="#FEFDFD"/>
<path transform="translate(790,335)" d="m0 0h10l6 5 2 8v24h-9l-1-1-1-23-1-2h-6l-2 2-1 4-1 19-6 2-4-2v-35z" fill="#FEFDFD"/>
<path transform="translate(1257,336)" d="m0 0h10l1 24 1 3h7l2-4 1-23h9l1 1v27l-4 6-5 3h-14l-6-4-3-7z" fill="#FEFDFD"/>
<path transform="translate(715,321)" d="m0 0 4 1 1 13 8 1v9l-1 1h-8v17h10v8l-2 2h-11l-4-2-3-6-2-18-3-7 2-4 2-1v-8l1-3z" fill="#FEFDFD"/>
<path transform="translate(1017,335)" d="m0 0h11l6 3 1 4-3 5-5-1h-9l-4 4v8l5 5h6l5-3 4 2 1 6-5 4-4 2h-8l-8-4-6-7-1-3v-12l5-8 6-4z" fill="#FEFDFD"/>
<path transform="translate(681,335)" d="m0 0h11l5 2 2 2v6l-5 2-3-1h-9l-3 4v8l1 4 10 1 4-2 5 1v7l-6 4-3 1h-7l-8-4-6-7-1-3v-11l4-8 6-5z" fill="#FEFDFD"/>
<path transform="translate(951,335)" d="m0 0 5 1-3 9-12 25-2 3-5-2-8-16-8-17v-2h10l3 4 6 13 4-8 4-9z" fill="#FEFDFD"/>
<path transform="translate(1058,316)" d="m0 0 4 2 8 8-1 5h-7l-4-1-2 1h-7l-1-4 7-8z" fill="#FEFDFD"/>
</svg>
