<svg xmlns="http://www.w3.org/2000/svg" xmlns:xlink="http://www.w3.org/1999/xlink" width="150" zoomAndPan="magnify" viewBox="0 0 112.5 30.000001" height="40" preserveAspectRatio="xMidYMid meet" version="1.0"><defs><clipPath id="7a38342d02"><path d="M 3.894531 0.0351562 L 108 0.0351562 L 108 29 L 3.894531 29 Z M 3.894531 0.0351562 " clip-rule="nonzero"/></clipPath></defs><g clip-path="url(#7a38342d02)"><path fill="#002be7" d="M 20.238281 0.574219 C 17.417969 0.574219 14.554688 1.828125 10.882812 4.648438 L 10.882812 1.289062 L 3.941406 1.289062 L 3.941406 28.148438 L 11.332031 28.148438 L 11.332031 11.453125 C 14.554688 8.902344 16.03125 8.09375 17.238281 8.09375 C 18.671875 8.09375 19.613281 8.988281 19.613281 11.226562 L 19.613281 28.148438 L 27 28.148438 L 27 11.40625 C 30.222656 8.902344 31.65625 8.09375 32.90625 8.09375 C 34.339844 8.09375 35.28125 8.988281 35.28125 11.226562 L 35.28125 28.148438 L 42.664062 28.148438 L 42.664062 8.632812 C 42.664062 2.589844 39.21875 0.574219 35.90625 0.574219 C 33.085938 0.574219 30.21875 1.738281 26.457031 4.605469 C 25.253906 1.601562 22.613281 0.574219 20.238281 0.574219 Z M 57.664062 0.574219 C 50.324219 0.574219 44.234375 6.886719 44.234375 14.71875 C 44.234375 22.554688 50.324219 28.867188 57.664062 28.867188 C 61.292969 28.867188 64.425781 27.523438 66.84375 24.613281 L 66.84375 28.148438 L 73.875 28.148438 L 73.875 1.289062 L 66.84375 1.289062 L 66.84375 4.828125 C 64.425781 1.917969 61.292969 0.574219 57.664062 0.574219 Z M 75.171875 1.289062 C 78.214844 6.035156 81.660156 10.289062 85.691406 14.542969 C 81.660156 18.972656 78.214844 23.585938 75.171875 28.148438 L 84.078125 28.148438 C 86.183594 24.746094 88.554688 21.660156 91.285156 18.75 C 93.972656 21.660156 96.210938 24.746094 98.316406 28.148438 L 107.3125 28.148438 C 104.222656 23.449219 100.867188 18.972656 96.835938 14.542969 C 100.820312 10.289062 104.222656 5.902344 107.3125 1.289062 L 98.496094 1.289062 C 96.300781 4.691406 93.929688 7.558594 91.285156 10.378906 C 88.601562 7.558594 86.230469 4.691406 84.078125 1.289062 Z M 58.78125 6.796875 C 63.167969 6.796875 66.707031 10.332031 66.707031 14.71875 C 66.707031 19.105469 63.167969 22.644531 58.78125 22.644531 C 54.398438 22.644531 50.859375 19.109375 50.859375 14.71875 C 50.859375 10.332031 54.398438 6.796875 58.78125 6.796875 Z M 58.78125 8.585938 C 55.425781 8.585938 52.695312 11.316406 52.695312 14.71875 C 52.695312 18.121094 55.425781 20.855469 58.78125 20.855469 C 62.140625 20.855469 64.871094 18.121094 64.871094 14.71875 C 64.871094 11.316406 62.140625 8.585938 58.78125 8.585938 Z M 58.78125 8.585938 " fill-opacity="1" fill-rule="nonzero"/></g></svg>