<svg xmlns="http://www.w3.org/2000/svg" xmlns:xlink="http://www.w3.org/1999/xlink" width="2350" zoomAndPan="magnify" viewBox="0 0 1762.5 299.999988" height="400" preserveAspectRatio="xMidYMid meet" version="1.0"><defs><clipPath id="853b5b3849"><path d="M 2 10.019531 L 1759 10.019531 L 1759 289.6875 L 2 289.6875 Z M 2 10.019531 " clip-rule="nonzero"/></clipPath></defs><path fill="#ffffff" d="M 40.847656 57.003906 L 1707.367188 57.003906 L 1707.367188 251.160156 L 40.847656 251.160156 Z M 40.847656 57.003906 " fill-opacity="1" fill-rule="nonzero"/><path fill="#338c2e" d="M 477.210938 137.679688 L 477.210938 112.859375 C 477.210938 109.3125 474.550781 106.652344 471.003906 106.652344 L 361.027344 106.652344 C 357.480469 106.652344 354.816406 109.3125 354.816406 112.859375 L 354.816406 144.773438 C 356.589844 144.773438 359.253906 143.886719 361.027344 143.886719 L 471.003906 143.886719 C 474.550781 143.886719 477.210938 141.226562 477.210938 137.679688 Z M 477.210938 137.679688 " fill-opacity="1" fill-rule="nonzero"/><path fill="#338c2e" d="M 1422.667969 137.679688 L 1422.667969 112.859375 C 1422.667969 109.3125 1420.007812 106.652344 1416.460938 106.652344 L 1306.480469 106.652344 C 1302.933594 106.652344 1300.273438 109.3125 1300.273438 112.859375 L 1300.273438 144.773438 C 1302.046875 144.773438 1304.707031 143.886719 1306.480469 143.886719 L 1416.460938 143.886719 C 1420.007812 143.886719 1422.667969 141.226562 1422.667969 137.679688 Z M 1422.667969 137.679688 " fill-opacity="1" fill-rule="nonzero"/><path fill="#338c2e" d="M 248.386719 106.652344 L 137.523438 106.652344 C 133.976562 106.652344 131.3125 109.3125 131.3125 112.859375 L 131.3125 144.773438 C 133.089844 144.773438 135.75 143.886719 137.523438 143.886719 L 248.386719 143.886719 C 251.933594 143.886719 254.597656 141.226562 254.597656 137.679688 L 254.597656 112.859375 C 254.597656 109.3125 251.933594 106.652344 248.386719 106.652344 Z M 248.386719 106.652344 " fill-opacity="1" fill-rule="nonzero"/><g clip-path="url(#853b5b3849)"><path fill="#338c2e" d="M 1663.023438 104.878906 C 1663.023438 104.878906 1536.195312 104.878906 1533.53125 104.878906 C 1529.097656 104.878906 1527.324219 107.539062 1527.324219 110.199219 C 1527.324219 112.859375 1527.324219 130.589844 1527.324219 130.589844 L 1663.023438 130.589844 L 1663.023438 162.503906 L 1527.324219 162.503906 C 1527.324219 162.503906 1527.324219 182.894531 1527.324219 186.441406 C 1527.324219 189.988281 1530.871094 191.761719 1533.53125 191.761719 C 1535.308594 191.761719 1663.023438 191.761719 1663.023438 191.761719 L 1663.023438 224.5625 C 1663.023438 224.5625 1537.96875 224.5625 1533.53125 224.5625 C 1506.925781 224.5625 1491.847656 205.058594 1491.847656 186.441406 C 1491.847656 155.410156 1491.847656 116.402344 1491.847656 112.859375 C 1491.847656 96.898438 1505.152344 73.851562 1530.871094 73.851562 C 1562.800781 73.851562 1663.023438 73.851562 1663.023438 73.851562 Z M 1414.6875 224.5625 L 1366.792969 176.6875 L 1307.367188 176.6875 C 1303.820312 176.6875 1301.160156 179.347656 1301.160156 182.894531 L 1301.160156 225.449219 L 1268.34375 225.449219 L 1268.34375 112.859375 C 1268.34375 91.582031 1286.082031 73.851562 1307.367188 73.851562 L 1417.347656 73.851562 C 1438.632812 73.851562 1456.371094 91.582031 1456.371094 112.859375 L 1456.371094 137.679688 C 1456.371094 158.957031 1438.632812 176.6875 1417.347656 176.6875 L 1412.910156 176.6875 L 1461.691406 224.5625 Z M 1231.09375 104.878906 C 1231.09375 104.878906 1104.265625 104.878906 1101.601562 104.878906 C 1097.167969 104.878906 1095.394531 107.539062 1095.394531 110.199219 C 1095.394531 112.859375 1095.394531 130.589844 1095.394531 130.589844 L 1231.09375 130.589844 L 1231.09375 162.503906 L 1095.394531 162.503906 C 1095.394531 162.503906 1095.394531 182.894531 1095.394531 186.441406 C 1095.394531 189.988281 1098.941406 191.761719 1101.601562 191.761719 C 1103.378906 191.761719 1231.09375 191.761719 1231.09375 191.761719 L 1231.09375 224.5625 C 1231.09375 224.5625 1106.039062 224.5625 1101.601562 224.5625 C 1074.996094 224.5625 1059.917969 205.058594 1059.917969 186.441406 C 1059.917969 155.410156 1059.917969 116.402344 1059.917969 112.859375 C 1059.917969 96.898438 1073.222656 73.851562 1098.941406 73.851562 C 1130.871094 73.851562 1231.09375 73.851562 1231.09375 73.851562 Z M 1023.554688 225.449219 L 988.078125 225.449219 L 988.078125 72.964844 L 1023.554688 72.964844 Z M 951.714844 224.5625 L 917.125 224.5625 L 917.125 117.289062 L 868.34375 206.832031 L 839.074219 206.832031 L 787.632812 117.289062 L 787.632812 225.449219 L 753.042969 225.449219 L 753.042969 73.851562 L 794.730469 73.851562 L 851.492188 173.144531 L 910.027344 73.851562 L 950.828125 73.851562 L 950.828125 224.5625 Z M 717.566406 104.878906 C 717.566406 104.878906 590.738281 104.878906 588.078125 104.878906 C 583.644531 104.878906 581.867188 107.539062 581.867188 110.199219 C 581.867188 112.859375 581.867188 130.589844 581.867188 130.589844 L 717.566406 130.589844 L 717.566406 162.503906 L 581.867188 162.503906 C 581.867188 162.503906 581.867188 182.894531 581.867188 186.441406 C 581.867188 189.988281 585.417969 191.761719 588.078125 191.761719 C 589.851562 191.761719 717.566406 191.761719 717.566406 191.761719 L 717.566406 224.5625 C 717.566406 224.5625 592.511719 224.5625 588.078125 224.5625 C 561.46875 224.5625 546.390625 205.058594 546.390625 186.441406 C 546.390625 155.410156 546.390625 116.402344 546.390625 112.859375 C 546.390625 96.898438 559.695312 73.851562 585.417969 73.851562 C 617.347656 73.851562 717.566406 73.851562 717.566406 73.851562 Z M 469.230469 224.5625 L 421.335938 176.6875 L 361.914062 176.6875 C 358.367188 176.6875 355.703125 179.347656 355.703125 182.894531 L 355.703125 225.449219 L 322 225.449219 L 322 112.859375 C 322 91.582031 339.738281 73.851562 361.027344 73.851562 L 471.003906 73.851562 C 492.289062 73.851562 510.027344 91.582031 510.027344 112.859375 L 510.027344 137.679688 C 510.027344 158.957031 492.289062 176.6875 471.003906 176.6875 L 467.457031 176.6875 L 516.238281 224.5625 Z M 285.636719 137.679688 C 285.636719 158.957031 267.898438 176.6875 246.613281 176.6875 L 137.523438 176.6875 C 133.976562 176.6875 131.3125 179.347656 131.3125 182.894531 L 131.3125 225.449219 L 98.5 225.449219 L 98.5 112.859375 C 98.5 91.582031 116.238281 73.851562 137.523438 73.851562 L 246.613281 73.851562 C 267.898438 73.851562 285.636719 91.582031 285.636719 112.859375 Z M 1732.203125 10.019531 L 29.320312 10.019531 C 15.128906 10.019531 2.710938 21.542969 2.710938 36.613281 L 2.710938 262.683594 C 2.710938 276.867188 14.242188 289.28125 29.320312 289.28125 L 1732.203125 289.28125 C 1746.394531 289.28125 1758.808594 277.753906 1758.808594 262.683594 L 1758.808594 36.613281 C 1758.808594 21.542969 1747.28125 10.019531 1732.203125 10.019531 Z M 1732.203125 10.019531 " fill-opacity="1" fill-rule="nonzero"/></g></svg>