<?xml version="1.0" encoding="UTF-8" standalone="no"?>
<svg
   xmlns:dc="http://purl.org/dc/elements/1.1/"
   xmlns:cc="http://creativecommons.org/ns#"
   xmlns:rdf="http://www.w3.org/1999/02/22-rdf-syntax-ns#"
   xmlns:svg="http://www.w3.org/2000/svg"
   xmlns="http://www.w3.org/2000/svg"
   xmlns:sodipodi="http://sodipodi.sourceforge.net/DTD/sodipodi-0.dtd"
   xmlns:inkscape="http://www.inkscape.org/namespaces/inkscape"
   width="700"
   height="700"
   viewBox="0 0 700 700"
   version="1.1"
   id="svg6"
   sodipodi:docname="deezer-fogo.svg"
   style="fill:none"
   inkscape:export-filename="C:\Users\suitedoalex\sites\deezer-logo-0.png"
   inkscape:export-xdpi="561.73712"
   inkscape:export-ydpi="561.73712"
   inkscape:version="0.92.0 r15299">
  <metadata
     id="metadata12">
    <rdf:RDF>
      <cc:Work
         rdf:about="">
        <dc:format>image/svg+xml</dc:format>
        <dc:type
           rdf:resource="http://purl.org/dc/dcmitype/StillImage" />
        <dc:title></dc:title>
      </cc:Work>
    </rdf:RDF>
  </metadata>
  <defs
     id="defs10" />
  <sodipodi:namedview
     pagecolor="#ffffff"
     bordercolor="#666666"
     borderopacity="1"
     objecttolerance="10"
     gridtolerance="10"
     guidetolerance="10"
     inkscape:pageopacity="0"
     inkscape:pageshadow="2"
     inkscape:window-width="1920"
     inkscape:window-height="1017"
     id="namedview8"
     showgrid="false"
     inkscape:zoom="0.41330645"
     inkscape:cx="496"
     inkscape:cy="139.5"
     inkscape:window-x="-8"
     inkscape:window-y="-8"
     inkscape:window-maximized="1"
     inkscape:current-layer="svg6" />
  <path
     d="m 258.40468,304.26576 h 35.32628 c 21.87309,0 37.33999,14.55158 37.33999,35.23476 0,20.68337 -15.4669,35.23502 -37.33999,35.23502 h -35.32628 z m 27.45593,51.43374 h 6.40619 c 6.86382,0 10.52487,-4.57567 10.52487,-16.19898 0,-11.62267 -3.66105,-16.19872 -10.52487,-16.19872 h -6.40619 z m 107.44237,19.03603 h -58.02337 v -70.46977 h 58.02337 v 19.03604 h -30.65935 v 8.14518 h 28.82882 v 15.55817 h -28.82882 v 8.69435 h 30.65935 z m 64.61209,0 h -58.02272 v -70.46977 h 58.02272 v 19.03604 h -30.65871 v 8.14518 h 28.82883 v 15.55817 h -28.82883 v 8.69435 h 30.65871 z m 210.58672,0 c -3.95413,-10.77554 -9.48427,-22.27287 -16.92334,-35.16045 8.70013,-2.55168 13.90311,-8.03683 13.90311,-16.45634 0,-12.8127 -11.80585,-18.85298 -30.47617,-18.85298 h -38.43778 v 70.46977 h 27.45528 v -29.14955 c 6.10025,10.27356 10.59429,19.96865 13.54511,29.14955 z m -44.4789,-38.98733 v -12.4464 h 9.51834 c 4.02677,0 6.31492,2.19662 6.31492,6.22339 0,4.02677 -2.28815,6.22301 -6.31492,6.22301 z m -34.04466,38.98733 h -58.02336 v -70.46977 h 58.02336 v 19.03604 h -30.6587 v 8.14518 h 28.82882 v 15.55817 h -28.82882 v 8.69435 h 30.6587 z M 464.50572,323.3018 h 28.32942 c -11.75379,9.61706 -21.42703,20.50958 -28.87896,32.39771 v 19.03603 h 62.32458 v -19.03603 h -31.15104 c 7.13827,-10.3854 17.11296,-20.72709 31.15104,-32.3977 v -19.03604 h -61.77504 z"
     id="path2"
     style="clip-rule:evenodd;fill:#000000;fill-rule:evenodd;stroke-width:0.64274013"
     inkscape:connector-curvature="0"
     inkscape:export-filename="C:\Users\suitedoalex\sites\deezer-logo-3.png"
     inkscape:export-xdpi="60.282238"
     inkscape:export-ydpi="60.282238" />
  <path
     d="m 181.1801,287.9937 c 1.6512,-9.5704 4.07433,-15.58857 6.75841,-15.60001 h 0.005 c 5.00502,0.0172 9.062,20.88816 9.062,46.65638 0,25.76848 -4.06276,46.65625 -9.07292,46.65625 -2.0542,0 -3.94964,-3.54664 -5.47551,-9.49005 -2.41156,21.75675 -7.41593,36.71267 -13.20959,36.71267 -4.48247,0 -8.50538,-8.98423 -11.20617,-23.15278 -1.84403,26.94623 -6.48525,46.06453 -11.90998,46.06453 -3.40459,0 -6.50839,-7.57597 -8.80618,-19.91144 -2.76314,25.46344 -9.14684,43.30526 -16.59105,43.30526 -7.44422,0 -13.83948,-17.83605 -16.59105,-43.30526 -2.28109,12.33547 -5.38488,19.91144 -8.806314,19.91144 -5.424469,0 -10.054512,-19.1183 -11.909974,-46.06453 -2.700858,14.16855 -6.712456,23.15278 -11.206367,23.15278 -5.787553,0 -10.797776,-14.95078 -13.209273,-36.71267 -1.515003,5.96077 -3.421499,9.49005 -5.475503,9.49005 -5.010224,0 -9.072919,-20.88777 -9.072919,-46.65625 0,-25.76822 4.062695,-46.65638 9.072919,-46.65638 2.689482,0 5.095322,6.03533 6.76349,15.60001 2.672513,-16.50248 7.013194,-27.22821 11.921286,-27.22821 5.827339,0 10.877284,15.16893 13.266092,37.19525 2.33771,-16.03116 5.884028,-26.25111 9.855905,-26.25111 5.566388,0 10.298238,20.10073 12.051638,48.13943 3.29661,-14.37572 8.06896,-23.39433 13.35164,-23.39433 5.28204,0 10.05438,9.02433 13.34521,23.39433 1.75918,-28.0387 6.48525,-48.13943 12.05202,-48.13943 3.96571,0 7.50656,10.21995 9.85578,26.25111 2.38328,-22.02632 7.43329,-37.19525 13.26037,-37.19525 4.89125,0 9.24839,10.73152 11.9209,27.22821 z M 31.498211,314.46116 c 0,-11.51898 2.303689,-20.85942 5.146412,-20.85942 2.842711,0 5.14642,9.34044 5.14642,20.85942 0,11.51868 -2.303709,20.85962 -5.14642,20.85962 -2.842723,0 -5.146412,-9.34094 -5.146412,-20.85962 z m 168.175449,0 c 0,-11.51898 2.30358,-20.85942 5.14642,-20.85942 2.8422,0 5.14642,9.34044 5.14642,20.85942 0,11.51868 -2.30422,20.85962 -5.14642,20.85962 -2.84284,0 -5.14642,-9.34094 -5.14642,-20.85962 z"
     id="path4"
     inkscape:connector-curvature="0"
     style="clip-rule:evenodd;fill:#a238ff;fill-rule:evenodd;stroke-width:0.64274013"
     inkscape:export-filename="C:\Users\suitedoalex\sites\deezer-logo-3.png"
     inkscape:export-xdpi="60.282238"
     inkscape:export-ydpi="60.282238" />
</svg>
